# xmcd
#
# Track frame offsets:
#	150
#	13228
#	31192
#	49428
#	68465
#	77653
#	88640
#	101962
#	115839
#	132227
#	142849
#	153575
#	164975
#	177749
#	189574
#	201159
#	218410
#	230598
#	248599
#	261758
#	278322
#	288872
#	302358
#	311835
#
# Disc length: 4411 seconds
#
# Revision: 0
# Processed by: cddbd v1.5.2PL0 Copyright (c) Steve Scherf et al.
# Submitted via: audiograbber 1.83.01
#
DISCID=52113918
DTITLE=Johnny Cash - Heroes and Friends Vol_2
DYEAR=1900
DGENRE=Country
TTITLE0=Steel Guitar Rag
TTITLE1=I will dance with you
TTITLE2=Thoughts on the flag
TTITLE3=In our mind
TTITLE4=Where the soul never dies
TTITLE5=Little bit of yesterday
TTITLE6=Hey Porter
TTITLE7=Song to Woody
TTITLE8=Six gun shooting
TTITLE9=Go on Blues
TTITLE10=That´s how I got to Memphis
TTITLE11=He touched me
TTITLE12=Blistered
TTITLE13=Let America be Amarica again
TTITLE14=My ship will sail
TTITLE15=They killed Him
TTITLE16=The General Lee
TTITLE17=Folsom Prison Blues
TTITLE18=I still miss someone
TTITLE19=Girl from the North Country
TTITLE20=I will Rock´n´Roll with you
TTITLE21=Veteran´s Day
TTITLE22=Jordan
TTITLE23=A front row seat to hear ole Johnny sing
EXTD=
EXTT0=
EXTT1=
EXTT2=
EXTT3=
EXTT4=
EXTT5=
EXTT6=
EXTT7=
EXTT8=
EXTT9=
EXTT10=
EXTT11=
EXTT12=
EXTT13=
EXTT14=
EXTT15=
EXTT16=
EXTT17=
EXTT18=
EXTT19=
EXTT20=
EXTT21=
EXTT22=
EXTT23=
PLAYORDER=
